<svg id="visual" viewBox="0 0 900 600" width="900" height="600" xmlns="http://www.w3.org/2000/svg" xmlns:xlink="http://www.w3.org/1999/xlink" version="1.1"><rect x="0" y="0" width="900" height="600" fill="#eef2ff"></rect><defs><linearGradient id="grad1_0" x1="33.3%" y1="0%" x2="100%" y2="100%"><stop offset="20%" stop-color="#eef2ff" stop-opacity="1"></stop><stop offset="80%" stop-color="#eef2ff" stop-opacity="1"></stop></linearGradient></defs><defs><linearGradient id="grad2_0" x1="0%" y1="0%" x2="66.7%" y2="100%"><stop offset="20%" stop-color="#eef2ff" stop-opacity="1"></stop><stop offset="80%" stop-color="#eef2ff" stop-opacity="1"></stop></linearGradient></defs><g transform="translate(900, 0)"><path d="M0 411C-62.9 420.6 -125.8 430.1 -167.6 404.7C-209.4 379.2 -230.2 318.7 -278.6 278.6C-327 238.5 -403.2 218.9 -424.7 175.9C-446.2 132.9 -413.1 66.4 -380 0L0 0Z" fill="#e0e7ff"></path></g><g transform="translate(0, 600)"><path d="M0 -459.7C47.7 -417.4 95.4 -375.1 145 -350.2C194.7 -325.2 246.2 -317.5 287.8 -287.8C329.3 -258.1 360.9 -206.2 373.2 -154.6C385.6 -103 378.8 -51.5 372 0L0 0Z" fill="#e0e7ff"></path></g></svg>