<svg width="146" height="35" viewBox="0 0 146 35" fill="none" xmlns="http://www.w3.org/2000/svg">
<path d="M49.1603 27.2739C47.7542 27.2739 46.4942 26.9452 45.3803 26.2878C44.2664 25.6304 43.3808 24.7357 42.7234 23.6035C42.0842 22.453 41.7647 21.1565 41.7647 19.7139C41.7647 18.2713 42.0842 16.9839 42.7234 15.8517C43.3808 14.7013 44.2664 13.7974 45.3803 13.14C46.4942 12.4826 47.7542 12.1539 49.1603 12.1539C50.4569 12.1539 51.6438 12.3822 52.7212 12.8387C53.8169 13.2952 54.6842 13.9343 55.3234 14.7561L52.9403 17.6048C52.6847 17.3126 52.3834 17.0387 52.0364 16.783C51.6895 16.5274 51.306 16.3265 50.886 16.1804C50.466 16.0343 50.0277 15.9613 49.5712 15.9613C48.8773 15.9613 48.2655 16.1257 47.736 16.4543C47.2064 16.7648 46.7955 17.203 46.5034 17.7691C46.2112 18.3352 46.0651 18.9835 46.0651 19.7139C46.0651 20.4078 46.2112 21.0378 46.5034 21.6039C46.8138 22.17 47.2338 22.6174 47.7634 22.9461C48.2929 23.2748 48.8955 23.4391 49.5712 23.4391C50.046 23.4391 50.4842 23.3843 50.886 23.2748C51.2877 23.147 51.6529 22.9643 51.9816 22.727C52.3286 22.4896 52.6482 22.1974 52.9403 21.8504L55.296 24.7265C54.6751 25.5117 53.8077 26.1326 52.6938 26.5891C51.5982 27.0457 50.4203 27.2739 49.1603 27.2739ZM57.7043 27V6.73043H62.0047V15.4135L61.1282 15.7422C61.3291 15.0848 61.6851 14.4913 62.1965 13.9617C62.726 13.4139 63.356 12.9757 64.0865 12.647C64.8169 12.3183 65.5838 12.1539 66.3873 12.1539C67.483 12.1539 68.4051 12.3822 69.1538 12.8387C69.9025 13.277 70.4686 13.9435 70.8521 14.8383C71.2356 15.7148 71.4273 16.7922 71.4273 18.0704V27H67.0173V18.4265C67.0173 17.8422 66.9351 17.3583 66.7708 16.9748C66.6065 16.5913 66.3508 16.3083 66.0038 16.1257C65.6751 15.9248 65.2643 15.8335 64.7712 15.8517C64.3878 15.8517 64.0317 15.9157 63.703 16.0435C63.3743 16.153 63.0912 16.3265 62.8538 16.5639C62.6165 16.783 62.4247 17.0387 62.2786 17.3309C62.1508 17.623 62.0869 17.9426 62.0869 18.2896V27H59.923C59.4117 27 58.9734 27 58.6082 27C58.243 27 57.9417 27 57.7043 27ZM80.46 27.2465C79.2366 27.2465 78.1409 26.927 77.1731 26.2878C76.2235 25.6304 75.4657 24.7357 74.8996 23.6035C74.3335 22.453 74.0505 21.1565 74.0505 19.7139C74.0505 18.2348 74.3335 16.9291 74.8996 15.797C75.4657 14.6648 76.2418 13.7791 77.2279 13.14C78.2139 12.4826 79.337 12.1539 80.597 12.1539C81.2909 12.1539 81.9209 12.2543 82.487 12.4552C83.0713 12.6561 83.5826 12.9391 84.0209 13.3043C84.4592 13.6513 84.8335 14.0622 85.1439 14.537C85.4544 14.9935 85.6826 15.4865 85.8287 16.0161L84.9248 15.9065V12.4552H89.28V27H84.8426V23.4939L85.8287 23.4665C85.6826 23.9778 85.4452 24.4617 85.1166 24.9183C84.7879 25.3748 84.3861 25.7765 83.9113 26.1235C83.4366 26.4704 82.907 26.7443 82.3226 26.9452C81.7383 27.1461 81.1174 27.2465 80.46 27.2465ZM81.6652 23.5487C82.3409 23.5487 82.9252 23.3935 83.4183 23.083C83.9113 22.7726 84.2948 22.3343 84.5687 21.7683C84.8426 21.1839 84.9796 20.4991 84.9796 19.7139C84.9796 18.9287 84.8426 18.253 84.5687 17.687C84.2948 17.1026 83.9113 16.6552 83.4183 16.3448C82.9252 16.0161 82.3409 15.8517 81.6652 15.8517C81.0079 15.8517 80.4326 16.0161 79.9396 16.3448C79.4648 16.6552 79.0905 17.1026 78.8166 17.687C78.5426 18.253 78.4057 18.9287 78.4057 19.7139C78.4057 20.4991 78.5426 21.1839 78.8166 21.7683C79.0905 22.3343 79.4648 22.7726 79.9396 23.083C80.4326 23.3935 81.0079 23.5487 81.6652 23.5487ZM94.3523 27V8.78478H98.735V27H94.3523ZM91.7776 16.29V12.4552H101.556V16.29H91.7776ZM105.266 27V8.78478H109.649V27H105.266ZM102.691 16.29V12.4552H112.47V16.29H102.691ZM115.221 27V12.4552H119.604V27H115.221ZM117.412 9.57913C116.591 9.57913 115.942 9.38739 115.468 9.00391C115.011 8.60217 114.783 8.03609 114.783 7.30565C114.783 6.64826 115.02 6.10956 115.495 5.68956C115.97 5.26956 116.609 5.05956 117.412 5.05956C118.234 5.05956 118.873 5.26043 119.33 5.66217C119.786 6.04565 120.015 6.59348 120.015 7.30565C120.015 7.9813 119.777 8.52913 119.302 8.94913C118.846 9.36913 118.216 9.57913 117.412 9.57913ZM130.652 27.2739C129.045 27.2739 127.648 26.9543 126.461 26.3152C125.274 25.6578 124.352 24.7722 123.694 23.6583C123.037 22.5261 122.708 21.2387 122.708 19.7961C122.708 18.6822 122.891 17.6596 123.256 16.7283C123.621 15.797 124.132 14.9935 124.79 14.3178C125.447 13.6239 126.223 13.0943 127.118 12.7291C128.031 12.3457 129.026 12.1539 130.104 12.1539C131.126 12.1539 132.058 12.3365 132.898 12.7017C133.756 13.067 134.496 13.5783 135.116 14.2357C135.737 14.893 136.212 15.6691 136.541 16.5639C136.869 17.4587 137.016 18.4357 136.979 19.4948L136.952 20.6726H125.365L124.735 18.2074H133.391L132.925 18.7278V18.18C132.889 17.7235 132.742 17.3217 132.487 16.9748C132.249 16.6096 131.93 16.3265 131.528 16.1257C131.126 15.9248 130.67 15.8243 130.159 15.8243C129.446 15.8243 128.835 15.9704 128.323 16.2626C127.83 16.5365 127.456 16.9474 127.2 17.4952C126.945 18.0248 126.817 18.6822 126.817 19.4674C126.817 20.2709 126.981 20.9739 127.31 21.5765C127.657 22.1609 128.15 22.6174 128.789 22.9461C129.446 23.2748 130.222 23.4391 131.117 23.4391C131.738 23.4391 132.286 23.3478 132.761 23.1652C133.254 22.9826 133.783 22.6722 134.349 22.2339L136.404 25.1374C135.838 25.6304 135.235 26.0322 134.596 26.3426C133.957 26.653 133.299 26.8813 132.624 27.0274C131.966 27.1917 131.309 27.2739 130.652 27.2739Z" fill="#18181B"/>
<path d="M17.5 35C27.165 35 35 27.165 35 17.5C35 7.83502 27.165 0 17.5 0C7.83502 0 0 7.83502 0 17.5C0 27.165 7.83502 35 17.5 35Z" fill="url(#paint0_linear_8_67)"/>
<path d="M25.9001 9.48119C21.2565 5.64852 13.7367 5.64852 9.09312 9.48119C5.0248 12.8495 4.52579 18.0475 7.60995 21.8594L6.54955 25.4703L10.9159 24.597C15.5317 27.1406 21.8248 26.7317 25.9001 23.3634C30.5436 19.5307 30.5436 13.3139 25.9001 9.48119Z" fill="white"/>
<path d="M18.4842 12.7317C18.7268 12.4891 19.0248 12.3644 19.3783 12.3644C19.7317 12.3644 20.0297 12.4891 20.2723 12.7317C20.5149 12.9743 20.6327 13.2723 20.6327 13.6258C20.6327 13.9792 20.5149 14.2773 20.2723 14.5198C20.0297 14.7624 19.7317 14.8802 19.3783 14.8802C19.0248 14.8802 18.7268 14.7624 18.4842 14.5198C18.2416 14.2773 18.1169 13.9792 18.1169 13.6258C18.1238 13.2723 18.2416 12.9743 18.4842 12.7317ZM14.7347 12.7317C14.9773 12.4891 15.2753 12.3644 15.6288 12.3644C15.9822 12.3644 16.2802 12.4891 16.5228 12.7317C16.7654 12.9743 16.8832 13.2723 16.8832 13.6258C16.8832 13.9792 16.7654 14.2773 16.5228 14.5198C16.2802 14.7624 15.9822 14.8802 15.6288 14.8802C15.2753 14.8802 14.9773 14.7624 14.7347 14.5198C14.4921 14.2773 14.3674 13.9792 14.3674 13.6258C14.3674 13.2723 14.4921 12.9743 14.7347 12.7317Z" fill="#6B21A8"/>
<path d="M14.1941 17.6386C15.3723 18.0337 16.4743 18.2277 17.5 18.2277C18.5257 18.2277 19.6208 18.0337 20.799 17.6386C21.9703 17.2436 22.9683 16.7654 23.7861 16.1901V18.505C23.1277 18.9693 22.199 19.399 21.0069 19.7802C19.8079 20.1614 18.6366 20.3555 17.5 20.3555C16.3564 20.3555 15.1921 20.1614 14 19.7802C12.8079 19.3921 11.8792 18.9693 11.2277 18.505V16.1901C12.0248 16.7584 13.0158 17.2436 14.1941 17.6386Z" fill="#6B21A8"/>
<defs>
<linearGradient id="paint0_linear_8_67" x1="35" y1="-2.08616e-06" x2="-2.08616e-06" y2="35" gradientUnits="userSpaceOnUse">
<stop stop-color="#A78BFA"/>
<stop offset="1" stop-color="#4338CA"/>
</linearGradient>
</defs>
</svg>
