<svg width="44" height="44" viewBox="0 0 44 44" fill="none" xmlns="http://www.w3.org/2000/svg">
<path d="M22 44C34.1503 44 44 34.1503 44 22C44 9.84974 34.1503 0 22 0C9.84974 0 0 9.84974 0 22C0 34.1503 9.84974 44 22 44Z" fill="url(#paint0_linear_10_74)"/>
<path d="M32.5601 11.9192C26.7225 7.10099 17.269 7.10099 11.4314 11.9192C6.31694 16.1537 5.68961 22.6883 9.56684 27.4804L8.23377 32.0198L13.7229 30.922C19.5257 34.1196 27.4369 33.6055 32.5601 29.3711C38.3977 24.5529 38.3977 16.7374 32.5601 11.9192Z" fill="white"/>
<path d="M23.2373 16.0056C23.5422 15.7007 23.9169 15.5438 24.3612 15.5438C24.8056 15.5438 25.1802 15.7007 25.4852 16.0056C25.7901 16.3106 25.9383 16.6852 25.9383 17.1296C25.9383 17.5739 25.7901 17.9486 25.4852 18.2535C25.1802 18.5585 24.8056 18.7066 24.3612 18.7066C23.9169 18.7066 23.5422 18.5585 23.2373 18.2535C22.9323 17.9486 22.7755 17.5739 22.7755 17.1296C22.7842 16.6852 22.9323 16.3106 23.2373 16.0056ZM18.5236 16.0056C18.8286 15.7007 19.2032 15.5438 19.6476 15.5438C20.0919 15.5438 20.4666 15.7007 20.7715 16.0056C21.0765 16.3106 21.2246 16.6852 21.2246 17.1296C21.2246 17.5739 21.0765 17.9486 20.7715 18.2535C20.4666 18.5585 20.0919 18.7066 19.6476 18.7066C19.2032 18.7066 18.8286 18.5585 18.5236 18.2535C18.2187 17.9486 18.0618 17.5739 18.0618 17.1296C18.0618 16.6852 18.2187 16.3106 18.5236 16.0056Z" fill="#6B21A8"/>
<path d="M17.844 22.1743C19.3252 22.671 20.7105 22.9149 22 22.9149C23.2895 22.9149 24.6662 22.671 26.1473 22.1743C27.6198 21.6777 28.8745 21.0765 29.9026 20.3533V23.2634C29.0749 23.8472 27.9073 24.3874 26.4087 24.8666C24.9014 25.3458 23.4289 25.5898 22 25.5898C20.5624 25.5898 19.0986 25.3458 17.6 24.8666C16.1014 24.3787 14.9339 23.8472 14.1149 23.2634V20.3533C15.1168 21.0678 16.3628 21.6777 17.844 22.1743Z" fill="#6B21A8"/>
<defs>
<linearGradient id="paint0_linear_10_74" x1="44" y1="-2.6226e-06" x2="-2.6226e-06" y2="44" gradientUnits="userSpaceOnUse">
<stop stop-color="#A78BFA"/>
<stop offset="1" stop-color="#4338CA"/>
</linearGradient>
</defs>
</svg>
